<svg width="24" height="24" fill="none" xmlns="http://www.w3.org/2000/svg"><path fill-rule="evenodd" clip-rule="evenodd" d="M1.7071 2.2929c-.3905-.3905-1.0237-.3905-1.4142 0-.3905.3905-.3905 1.0237 0 1.4142l18 18c.3905.3905 1.0237.3905 1.4142 0 .3905-.3905.3905-1.0237 0-1.4142l-1.7072-1.7072v-2.8714l4.4187 3.1562c.6619.4728 1.5813-.0003 1.5813-.8137V5.9432c0-.8134-.9194-1.2865-1.5813-.8138l-4.4623 3.1874a8.8435 8.8435 0 0 0-.0074-.097c-.0528-.6455-.165-1.224-.4395-1.7628a4.4995 4.4995 0 0 0-1.9666-1.9665c-.5388-.2746-1.1172-.3868-1.7627-.4395C13.1556 4 12.3863 4 11.442 4H3.4142l-1.707-1.7071ZM5.4142 6 16 16.5857V10.6c0-.9966-.0008-1.6839-.0444-2.2174-.0426-.5217-.1212-.8077-.2281-1.0176a2.5 2.5 0 0 0-1.0925-1.0925c-.2099-.107-.4959-.1855-1.0177-.2281C13.0838 6.0008 12.3965 6 11.3999 6H5.4142ZM6.6 17.9995c-.9966 0-1.6839-.0008-2.2174-.0444-.5217-.0426-.8077-.1211-1.0176-.2281a2.5 2.5 0 0 1-1.0925-1.0925c-.107-.2099-.1855-.4958-.2281-1.0176C2.0008 15.0834 2 14.3961 2 13.3995v-4.4c0-.5523-.4477-1-1-1s-1 .4477-1 1v4.4422c0 .9443 0 1.7135.051 2.338.0527.6455.165 1.224.4395 1.7628A4.4998 4.4998 0 0 0 2.457 19.509c.5389.2746 1.1173.3868 1.7628.4395.6245.051 1.3937.051 2.338.051H11c.5523 0 1-.4477 1-1s-.4477-1-1-1H6.6Z" fill="#fff"/></svg>