<svg width="24" height="24" fill="none" xmlns="http://www.w3.org/2000/svg"><path fill-rule="evenodd" clip-rule="evenodd" d="M11.4412 4H6.5569c-.9443 0-1.7136 0-2.3381.051-.6455.0527-1.224.165-1.7627.4395A4.5 4.5 0 0 0 .4895 6.457C.215 6.996.1028 7.5743.05 8.2198c-.051.6245-.051 1.3937-.051 2.338V13.4422c0 .9443 0 1.7135.051 2.338.0528.6455.165 1.2239.4395 1.7628a4.4998 4.4998 0 0 0 1.9666 1.9665c.5388.2746 1.1172.3868 1.7627.4395.6245.051 1.3937.051 2.338.051h4.8845c.9442 0 1.7134 0 2.3379-.051.6455-.0527 1.224-.1649 1.7628-.4395a4.5004 4.5004 0 0 0 1.9666-1.9665c.2745-.5389.3867-1.1173.4394-1.7628.0026-.032.0051-.0643.0075-.0971l4.4623 3.1874c.6619.4728 1.5812-.0003 1.5812-.8137V5.9432c0-.8134-.9193-1.2865-1.5812-.8138l-4.4623 3.1874a12.2373 12.2373 0 0 0-.0075-.097c-.0527-.6455-.1649-1.224-.4394-1.7628a4.5006 4.5006 0 0 0-1.9666-1.9665c-.5388-.2746-1.1173-.3868-1.7628-.4395C13.1547 4 12.3855 4 11.4412 4ZM3.3641 6.2725c.2098-.107.4958-.1855 1.0176-.2281C4.915 6.0008 5.6024 6 6.599 6h4.8c.9966 0 1.6839.0008 2.2174.0444.5218.0426.8077.1211 1.0176.228a2.4996 2.4996 0 0 1 1.0925 1.0926c.107.2099.1855.4958.2282 1.0176.0435.5335.0443 1.2208.0443 2.2174v2.8c0 .9966-.0008 1.6839-.0443 2.2174-.0427.5218-.1212.8077-.2282 1.0176a2.4995 2.4995 0 0 1-1.0925 1.0925c-.2099.107-.4958.1855-1.0176.2281-.5335.0436-1.2208.0444-2.2174.0444h-4.8c-.9966 0-1.6839-.0008-2.2173-.0444-.5218-.0426-.8078-.1211-1.0177-.2281a2.5 2.5 0 0 1-1.0925-1.0925c-.107-.2099-.1855-.4958-.2281-1.0176-.0436-.5335-.0444-1.2208-.0444-2.2174v-2.8c0-.9966.0008-1.6839.0444-2.2174.0426-.5217.1212-.8077.2281-1.0176a2.5 2.5 0 0 1 1.0926-1.0925Z" fill="#2F66F7"/></svg>