<svg width="24" height="24" fill="none" xmlns="http://www.w3.org/2000/svg"><path fill-rule="evenodd" clip-rule="evenodd" d="M8 6.5858V5c0-2.2091 1.7909-4 4-4 2.2091 0 4 1.7909 4 4v8a1.991 1.991 0 0 1-.3938 1.1919l1.7127 1.7128a2.8638 2.8638 0 0 0 .1241-.1577c.2765-.3779.557-.9507.557-1.747v-3.5c0-.5523.4477-1 1-1s1 .4477 1 1V14c0 1.3037-.4695 2.2809-.943 2.928a4.8795 4.8795 0 0 1-.3209.3939l2.971 2.971c.3905.3905.3905 1.0237 0 1.4142-.3905.3905-1.0237.3905-1.4142 0l-18-18c-.3905-.3905-.3905-1.0237 0-1.4142.3905-.3905 1.0237-.3905 1.4142 0L8 6.5858ZM5 9.5c.5523 0 1 .4477 1 1V14c0 1.6569 1.3431 3 3 3h3c.5523 0 1 .4477 1 1v4c0 .5523-.4477 1-1 1s-1-.4477-1-1v-3H9c-2.7614 0-5-2.2386-5-5v-3.5c0-.5523.4477-1 1-1Z" fill="#fff"/></svg>