<svg width="24" height="24" fill="none" xmlns="http://www.w3.org/2000/svg"><path fill-rule="evenodd" clip-rule="evenodd" d="M16.4412 2H7.5569c-.9443 0-1.7136 0-2.3381.051-.6455.0527-1.224.165-1.7627.4395A4.5 4.5 0 0 0 1.4895 4.457c-.2745.5389-.3867 1.1173-.4395 1.7628-.051.6245-.051 1.3937-.051 2.338v2.8844c0 .9443 0 1.7135.051 2.338.0528.6455.165 1.2239.4395 1.7628a4.4998 4.4998 0 0 0 1.9666 1.9665c.5388.2746 1.1172.3868 1.7627.4395.6245.051 1.3937.051 2.338.051H9.199L6.909 20.8627C6.5422 21.321 6.8685 22 7.4555 22h9.0871c.5869 0 .9133-.679.5466-1.1373L14.799 18H16.4413c.9442 0 1.7134 0 2.3379-.051.6455-.0527 1.224-.1649 1.7628-.4395a4.5004 4.5004 0 0 0 1.9666-1.9665c.2745-.5389.3867-1.1173.4394-1.7628.051-.6245.051-1.3937.051-2.338V8.5578c0-.9443 0-1.7135-.051-2.338-.0527-.6455-.1649-1.224-.4394-1.7628a4.5006 4.5006 0 0 0-1.9666-1.9665c-.5388-.2746-1.1173-.3868-1.7628-.4395C18.1547 2 17.3855 2 16.4412 2ZM4.3641 4.2725c.2098-.107.4958-.1855 1.0176-.2281C5.915 4.0008 6.6024 4 7.599 4h8.8c.9966 0 1.6839.0008 2.2174.0444.5218.0426.8077.1211 1.0176.228a2.4996 2.4996 0 0 1 1.0925 1.0926c.107.2099.1855.4958.2282 1.0176.0435.5335.0443 1.2208.0443 2.2174v2.8c0 .9966-.0008 1.6839-.0443 2.2174-.0427.5218-.1212.8077-.2282 1.0176a2.4995 2.4995 0 0 1-1.0925 1.0925c-.2099.107-.4958.1855-1.0176.2281-.5335.0436-1.2208.0444-2.2174.0444h-8.8c-.9966 0-1.6839-.0008-2.2173-.0444-.5218-.0426-.8078-.1211-1.0177-.2281a2.5 2.5 0 0 1-1.0925-1.0925c-.107-.2099-.1855-.4958-.2281-1.0176-.0436-.5335-.0444-1.2208-.0444-2.2174V8.6c0-.9966.0008-1.6839.0444-2.2174.0426-.5217.1212-.8077.2281-1.0176A2.5 2.5 0 0 1 4.364 4.2725Z" fill="#FDC745"/></svg>